<?xml version="1.0" encoding="UTF-8"?>
<svg version="1.1" xmlns="http://www.w3.org/2000/svg" width="39" height="39">
<path d="M0 0 C4.29816086 3.05000498 7.47270301 7.12376235 8.7890625 12.26953125 C9.60430707 18.79148782 8.61793115 23.87377174 4.7890625 29.26953125 C0.42197022 33.98359798 -4.14998289 36.30621431 -10.5234375 36.64453125 C-16.14310383 36.49492283 -20.61529876 34.67412044 -24.75 30.84375 C-29.21992828 25.78567326 -30.6997476 21.23202294 -30.5234375 14.609375 C-29.80456743 9.22683536 -27.31894003 4.96962651 -23.2734375 1.39453125 C-15.76588438 -3.81479132 -8.0822946 -4.55635333 0 0 Z " fill="#418F70" transform="translate(30.2109375,2.73046875)"/>
<path d="M0 0 C4.29816086 3.05000498 7.47270301 7.12376235 8.7890625 12.26953125 C9.60430707 18.79148782 8.61793115 23.87377174 4.7890625 29.26953125 C0.42197022 33.98359798 -4.14998289 36.30621431 -10.5234375 36.64453125 C-16.14310383 36.49492283 -20.61529876 34.67412044 -24.75 30.84375 C-29.21992828 25.78567326 -30.6997476 21.23202294 -30.5234375 14.609375 C-29.80456743 9.22683536 -27.31894003 4.96962651 -23.2734375 1.39453125 C-15.76588438 -3.81479132 -8.0822946 -4.55635333 0 0 Z M-17.2109375 2.26953125 C-17.2109375 2.92953125 -17.2109375 3.58953125 -17.2109375 4.26953125 C-17.8709375 4.26953125 -18.5309375 4.26953125 -19.2109375 4.26953125 C-19.2109375 4.92953125 -19.2109375 5.58953125 -19.2109375 6.26953125 C-20.5309375 6.59953125 -21.8509375 6.92953125 -23.2109375 7.26953125 C-23.2109375 13.86953125 -23.2109375 20.46953125 -23.2109375 27.26953125 C-22.5509375 27.26953125 -21.8909375 27.26953125 -21.2109375 27.26953125 C-21.2109375 27.92953125 -21.2109375 28.58953125 -21.2109375 29.26953125 C-20.5509375 29.26953125 -19.8909375 29.26953125 -19.2109375 29.26953125 C-19.2109375 29.92953125 -19.2109375 30.58953125 -19.2109375 31.26953125 C-13.6009375 31.26953125 -7.9909375 31.26953125 -2.2109375 31.26953125 C-2.2109375 30.60953125 -2.2109375 29.94953125 -2.2109375 29.26953125 C-1.5509375 29.26953125 -0.8909375 29.26953125 -0.2109375 29.26953125 C-0.2109375 28.60953125 -0.2109375 27.94953125 -0.2109375 27.26953125 C0.4490625 27.26953125 1.1090625 27.26953125 1.7890625 27.26953125 C1.7890625 20.66953125 1.7890625 14.06953125 1.7890625 7.26953125 C0.4690625 6.93953125 -0.8509375 6.60953125 -2.2109375 6.26953125 C-2.2109375 5.60953125 -2.2109375 4.94953125 -2.2109375 4.26953125 C-2.8709375 4.26953125 -3.5309375 4.26953125 -4.2109375 4.26953125 C-4.2109375 3.60953125 -4.2109375 2.94953125 -4.2109375 2.26953125 C-8.5009375 2.26953125 -12.7909375 2.26953125 -17.2109375 2.26953125 Z " fill="#C8C8C8" transform="translate(30.2109375,2.73046875)"/>
<path d="M0 0 C0.66 0 1.32 0 2 0 C2 2.64 2 5.28 2 8 C2.66 8 3.32 8 4 8 C4 8.66 4 9.32 4 10 C7.63 10 11.26 10 15 10 C15 10.99 15 11.98 15 13 C12.69 13 10.38 13 8 13 C8 12.34 8 11.68 8 11 C6.02 11 4.04 11 2 11 C2 12.32 2 13.64 2 15 C2.66 15 3.32 15 4 15 C4 15.66 4 16.32 4 17 C4.66 17 5.32 17 6 17 C6 17.66 6 18.32 6 19 C10.29 19 14.58 19 19 19 C19 18.34 19 17.68 19 17 C19.66 17 20.32 17 21 17 C21 16.34 21 15.68 21 15 C21.66 15 22.32 15 23 15 C23 13.35 23 11.7 23 10 C22.34 10 21.68 10 21 10 C21 9.34 21 8.68 21 8 C20.34 8 19.68 8 19 8 C19 7.34 19 6.68 19 6 C16.03 6 13.06 6 10 6 C10 4.68 10 3.36 10 2 C12.31 2 14.62 2 17 2 C17 2.66 17 3.32 17 4 C18.98 4 20.96 4 23 4 C23 2.68 23 1.36 23 0 C23.66 0 24.32 0 25 0 C25 6.6 25 13.2 25 20 C24.34 20 23.68 20 23 20 C23 20.66 23 21.32 23 22 C22.34 22 21.68 22 21 22 C21 22.66 21 23.32 21 24 C15.39 24 9.78 24 4 24 C4 23.34 4 22.68 4 22 C3.34 22 2.68 22 2 22 C2 21.34 2 20.68 2 20 C1.34 20 0.68 20 0 20 C0 13.4 0 6.8 0 0 Z " fill="#000000" transform="translate(7,10)"/>
<path d="M0 0 C1.98 0 3.96 0 6 0 C6 0.66 6 1.32 6 2 C10.95 2 15.9 2 21 2 C21 2.66 21 3.32 21 4 C20.34 4 19.68 4 19 4 C19 4.66 19 5.32 19 6 C18.34 6 17.68 6 17 6 C17 6.66 17 7.32 17 8 C12.71 8 8.42 8 4 8 C4 7.34 4 6.68 4 6 C3.34 6 2.68 6 2 6 C2 5.34 2 4.68 2 4 C1.34 4 0.68 4 0 4 C0 2.68 0 1.36 0 0 Z " fill="#2C6578" transform="translate(9,21)"/>
<path d="M0 0 C4.29 0 8.58 0 13 0 C13 0.66 13 1.32 13 2 C13.66 2 14.32 2 15 2 C15 2.66 15 3.32 15 4 C15.66 4 16.32 4 17 4 C17 4.66 17 5.32 17 6 C10.07 6 3.14 6 -4 6 C-4 5.34 -4 4.68 -4 4 C-3.34 4 -2.68 4 -2 4 C-2 3.34 -2 2.68 -2 2 C-1.34 2 -0.68 2 0 2 C0 1.34 0 0.68 0 0 Z " fill="#417730" transform="translate(13,5)"/>
<path d="M0 0 C0 0.99 0 1.98 0 3 C-1.98 3 -3.96 3 -6 3 C-6 2.34 -6 1.68 -6 1 C-8.31 1 -10.62 1 -13 1 C-13 1.66 -13 2.32 -13 3 C-15.64 3 -18.28 3 -21 3 C-21 2.01 -21 1.02 -21 0 C-14.08879929 -1.20194795 -6.82317479 -1.97636787 0 0 Z " fill="#60B85B" transform="translate(30,11)"/>
<path d="M0 0 C2.64 0 5.28 0 8 0 C8 0.66 8 1.32 8 2 C10.97 2 13.94 2 17 2 C17 2.66 17 3.32 17 4 C11.39 4 5.78 4 0 4 C0 2.68 0 1.36 0 0 Z " fill="#4D9F68" transform="translate(9,14)"/>
<path d="M0 0 C5.61 0 11.22 0 17 0 C16.01 0.495 16.01 0.495 15 1 C15 1.66 15 2.32 15 3 C10.71 3 6.42 3 2 3 C2 2.34 2 1.68 2 1 C1.34 0.67 0.68 0.34 0 0 Z " fill="#1E4156" transform="translate(11,26)"/>
<path d="M0 0 C2.64 0 5.28 0 8 0 C8 0.99 8 1.98 8 3 C5.36 3 2.72 3 0 3 C0 2.01 0 1.02 0 0 Z " fill="#368077" transform="translate(22,20)"/>
</svg>
