<?xml version="1.0" standalone="no"?>
<!DOCTYPE svg PUBLIC "-//W3C//DTD SVG 20010904//EN"
 "http://www.w3.org/TR/2001/REC-SVG-20010904/DTD/svg10.dtd">
<svg version="1.0" xmlns="http://www.w3.org/2000/svg"
 width="39.000000pt" height="39.000000pt" viewBox="0 0 39.000000 39.000000"
 preserveAspectRatio="xMidYMid meet">

<g transform="translate(0.000000,39.000000) scale(0.100000,-0.100000)"
fill="#000000" stroke="none">
<path d="M115 371 c-99 -46 -141 -158 -96 -256 70 -152 282 -152 352 0 75 162
-94 331 -256 256z m183 -24 c117 -77 103 -256 -23 -317 -128 -62 -276 40 -263
180 14 141 169 215 286 137z"/>
<path d="M120 320 c-8 -11 -22 -23 -32 -26 -16 -5 -18 -18 -18 -100 0 -87 2
-97 25 -119 21 -22 33 -25 100 -25 67 0 79 3 100 25 23 22 25 32 25 120 0 53
-4 95 -10 95 -5 0 -20 11 -34 25 -21 21 -35 25 -83 25 -47 0 -61 -4 -73 -20z
m140 -9 c0 -5 9 -13 20 -16 11 -3 20 -15 20 -26 0 -14 -7 -19 -30 -19 -16 0
-30 5 -30 10 0 6 -16 10 -35 10 -28 0 -35 -4 -35 -20 0 -17 7 -20 45 -20 29 0
45 -4 45 -12 0 -12 -25 -14 -147 -9 -20 1 -23 6 -23 40 0 31 4 41 20 46 11 3
20 11 20 16 0 5 29 9 65 9 36 0 65 -4 65 -9z"/>
</g>
</svg>
