<?xml version="1.0" encoding="UTF-8"?>
<svg version="1.1" xmlns="http://www.w3.org/2000/svg" width="917" height="265">
<path d="M0 0 C0.93596512 0.00045319 1.87193024 0.00090637 2.83625793 0.00137329 C3.81692734 -0.00198532 4.79759674 -0.00534393 5.8079834 -0.00880432 C9.07441961 -0.01835796 12.34080468 -0.02026057 15.60725403 -0.02133179 C17.87917604 -0.02454468 20.15109784 -0.02790877 22.42301941 -0.03141785 C27.20318581 -0.03742246 31.98333412 -0.03925672 36.76350403 -0.03866577 C42.85469672 -0.03856484 48.94577101 -0.05213921 55.03693581 -0.06943798 C59.74020405 -0.08063161 64.44344451 -0.08258262 69.1467247 -0.08205605 C71.38952919 -0.08322809 73.63233459 -0.08760577 75.87512589 -0.09538841 C99.62388883 -0.16998808 124.01038566 0.48695824 142.19319153 17.84585571 C142.95631653 18.60511353 143.71944153 19.36437134 144.50569153 20.14663696 C145.14506653 20.75120728 145.78444153 21.35577759 146.44319153 21.97866821 C157.43981663 33.24529973 162.28462271 50.93628163 162.54182434 66.30581665 C162.2960413 85.19720936 157.45656526 100.7914103 144.18928528 114.55288696 C135.15697914 123.28280148 125.57828767 127.929801 113.50569153 131.14663696 C121.01441579 146.57241491 129.25303255 161.59625167 137.51741028 176.62710571 C142.85711644 186.34954327 148.11282164 196.1127147 153.24180603 205.94799805 C154.17558234 207.73788323 155.11294203 209.52589752 156.05036926 211.31387329 C156.6169928 212.40595093 157.18361633 213.49802856 157.76741028 214.62319946 C158.52477478 216.07847046 158.52477478 216.07847046 159.29743958 217.56314087 C160.50569153 220.14663696 160.50569153 220.14663696 161.50569153 224.14663696 C148.30569153 224.14663696 135.10569153 224.14663696 121.50569153 224.14663696 C109.37695865 202.06961756 109.37695865 202.06961756 104.25959778 191.66226196 C101.77057288 186.6731252 99.16234137 181.74938536 96.55476379 176.82144165 C94.16536677 172.30399491 91.79217655 167.77900375 89.44319153 163.24038696 C88.92329651 162.23741577 88.40340149 161.23444458 87.86775208 160.20108032 C86.86941221 158.2734523 85.87330601 156.34466497 84.87995911 154.41445923 C81.29501562 147.50209532 77.4428668 140.89608029 73.50569153 134.14663696 C59.31569153 133.81663696 45.12569153 133.48663696 30.50569153 133.14663696 C30.50569153 163.17663696 30.50569153 193.20663696 30.50569153 224.14663696 C18.29569153 224.14663696 6.08569153 224.14663696 -6.49430847 224.14663696 C-6.64783362 195.08834624 -6.7960821 166.03003408 -6.93727207 136.97168064 C-6.95032344 134.28968356 -6.96339632 131.60768659 -6.97648621 128.9256897 C-6.97973913 128.25904491 -6.98299206 127.59240013 -6.98634356 126.90555399 C-7.0391868 116.0974152 -7.09557662 105.28929766 -7.15326668 94.48118377 C-7.2123402 83.39916452 -7.26755145 72.31713014 -7.31936401 61.23507446 C-7.34860575 55.00705199 -7.37963635 48.77904967 -7.41484261 42.55105782 C-7.44788297 36.69647553 -7.47627764 30.84188962 -7.50101471 24.98726654 C-7.51095872 22.8316886 -7.52264136 20.67611793 -7.53613853 18.52055931 C-7.55422748 15.59131655 -7.56622155 12.66211254 -7.57659912 9.73283386 C-7.58340291 8.86806523 -7.5902067 8.00329661 -7.59721667 7.11232287 C-7.60102779 5.12346871 -7.5535391 3.13461259 -7.49430847 1.14663696 C-5.54799049 -0.79968102 -2.59149497 0.01305916 0 0 Z M30.50569153 32.14663696 C30.50569153 55.24663696 30.50569153 78.34663696 30.50569153 102.14663696 C44.42756653 102.20851196 44.42756653 102.20851196 58.63069153 102.27163696 C62.98151917 102.29894897 62.98151917 102.29894897 67.42024231 102.32681274 C69.76382768 102.33266341 72.10741511 102.3377576 74.45100403 102.34194946 C75.63170471 102.3521814 76.8124054 102.36241333 78.02888489 102.37295532 C88.4798359 102.37510351 99.86565266 102.35028487 109.19319153 97.14663696 C110.14580872 96.63101196 111.0984259 96.11538696 112.07991028 95.58413696 C113.92180739 94.49264238 115.72425934 93.33425842 117.50569153 92.14663696 C117.50569153 91.48663696 117.50569153 90.82663696 117.50569153 90.14663696 C118.16569153 90.14663696 118.82569153 90.14663696 119.50569153 90.14663696 C120.32406595 88.73335567 121.13515372 87.31585351 121.94319153 85.89663696 C122.39565247 85.10773071 122.8481134 84.31882446 123.31428528 83.50601196 C127.37794912 75.45862521 126.60905965 63.57706922 124.85725403 54.95523071 C121.84162783 46.72025148 116.57440425 40.97845729 108.94319153 36.77163696 C98.03852486 31.88593642 86.22084557 31.8493272 74.45100403 31.95132446 C72.76188904 31.9543457 72.76188904 31.9543457 71.03865051 31.95742798 C66.9026217 31.9677534 62.76665174 31.99567377 58.63069153 32.02163696 C49.34944153 32.06288696 40.06819153 32.10413696 30.50569153 32.14663696 Z " fill="#BBBCBD" transform="translate(328.4943084716797,9.853363037109375)"/>
<path d="M0 0 C1.06734375 0.35191406 2.1346875 0.70382813 3.234375 1.06640625 C15.64518316 5.48010915 25.59506903 11.8219041 35 21 C35.86625 21.825 36.7325 22.65 37.625 23.5 C38.800625 24.7375 38.800625 24.7375 40 26 C40.59167969 26.59683594 41.18335938 27.19367187 41.79296875 27.80859375 C64.22413762 51.45460349 70.59625973 87.04591327 70.15234375 118.4765625 C69.25887331 152.33983044 58.44153039 183.55904739 33.546875 207.34375 C15.48823317 223.13154465 -8.15290264 229.2006926 -31.76171875 228.15234375 C-57.17411222 226.4227044 -78.57717152 215.39042984 -95.68603516 196.54785156 C-118.84131603 169.27091348 -123.06280429 131.51183894 -120.7265625 97.16015625 C-118.00277866 66.83606667 -105.0639195 35.75850444 -81.4609375 15.859375 C-58.95062167 -1.97898849 -27.8354659 -9.68021091 0 0 Z M-63.34765625 46.99609375 C-66.68792418 51.04705699 -69.36707626 55.46833318 -72 60 C-72.45375 60.75796875 -72.9075 61.5159375 -73.375 62.296875 C-87.09015749 87.15559795 -87.03591319 121.54945303 -79.8125 148.3125 C-74.93532948 165.16439318 -66.19948491 180.68511517 -50.4765625 189.3984375 C-36.85228396 196.1520197 -22.07177723 196.73913227 -7.640625 192.3125 C7.27765992 186.93423419 18.37196522 174.89827873 25.1640625 160.86328125 C37.28685339 133.84192025 37.46111694 100.01938625 27.37109375 72.32421875 C20.59013033 55.88376328 9.21983472 41.73668238 -7.109375 34.1875 C-27.04463414 25.99788003 -48.69117982 31.58092913 -63.34765625 46.99609375 Z " fill="#B9BABB" transform="translate(647,10)"/>
<path d="M0 0 C0 0.66 0 1.32 0 2 C0.66 2 1.32 2 2 2 C5 5.46153846 5 5.46153846 5 8 C3.77734375 9.234375 3.77734375 9.234375 1.9375 10.75 C-1.04302672 13.26951 -3.93224124 15.85651061 -6.765625 18.5390625 C-7.43070068 19.16844727 -8.09577637 19.79783203 -8.78100586 20.44628906 C-10.12623329 21.72345487 -11.46824637 23.00401561 -12.80688477 24.28808594 C-13.74745728 25.17802246 -13.74745728 25.17802246 -14.70703125 26.0859375 C-15.2688208 26.6226709 -15.83061035 27.1594043 -16.40942383 27.71240234 C-18 29 -18 29 -21 30 C-21.62648438 29.36191406 -22.25296875 28.72382812 -22.8984375 28.06640625 C-23.71570313 27.24011719 -24.53296875 26.41382813 -25.375 25.5625 C-26.18710937 24.73878906 -26.99921875 23.91507813 -27.8359375 23.06640625 C-29.82348515 20.96565328 -29.82348515 20.96565328 -32 20 C-32 19.34 -32 18.68 -32 18 C-32.71285156 17.73058594 -33.42570313 17.46117187 -34.16015625 17.18359375 C-37.04408791 15.98162498 -39.69530086 14.55720771 -42.4375 13.0625 C-55.98137382 6.28227431 -71.65049481 4.78189185 -86.2421875 8.96484375 C-93.42041497 11.65922092 -98.28365584 15.42798822 -102.125 22.0703125 C-104.87131874 28.12692615 -105.04224772 35.75437325 -103.46875 42.1640625 C-100.78496523 48.78600971 -96.58754511 52.72587908 -90.35546875 55.9375 C-89.37419258 56.45062744 -89.37419258 56.45062744 -88.37309265 56.97412109 C-81.37827708 60.50526212 -74.08619491 62.93805142 -66.62408447 65.27453613 C-62.65897531 66.51893947 -58.71124792 67.81654058 -54.76171875 69.109375 C-53.99331665 69.35991638 -53.22491455 69.61045776 -52.43322754 69.86859131 C-27.10724752 78.16281208 -3.06460615 88.89967042 10.30078125 113.3828125 C16.6185479 127.30487282 16.0097813 143.51731058 11.3125 157.8125 C3.66917072 176.5836175 -11.22135969 189.71928336 -29.53125 197.71875 C-56.46802989 207.6683714 -88.76055803 206.8357958 -115 195 C-127.74817271 188.90317608 -139.18457725 181.19796944 -148 170 C-143.4320354 164.74169991 -138.79995532 159.54737539 -134.11328125 154.39453125 C-131.99127508 151.99011391 -129.98279012 149.51988903 -128 147 C-124.18350069 148.32340957 -121.68993643 149.94787196 -118.6875 152.625 C-100.93764337 167.15241242 -79.35244767 171.2034969 -57 170 C-46.67673026 168.56884334 -37.21161103 164.68871507 -30 157 C-24.59175952 149.53629118 -23.18996725 142.02607926 -24 133 C-25.25954069 126.92456844 -28.22952671 121.95367094 -33 118 C-47.19758881 108.81332489 -63.7164209 103.67968989 -79.6875 98.5 C-102.0109443 91.22287274 -123.82915252 81.83490274 -135.4765625 60.265625 C-142.41730071 45.89707923 -143.0043457 30.16242056 -138 15 C-135.12990632 8.17115641 -131.69844237 1.74254067 -127 -4 C-126.34 -4 -125.68 -4 -125 -4 C-124.76925781 -4.56976562 -124.53851562 -5.13953125 -124.30078125 -5.7265625 C-118.24700076 -16.30704373 -104.20161675 -21.67658108 -93.04760742 -24.78320312 C-59.68451257 -33.40740602 -24.76324684 -23.90411379 0 0 Z " fill="#B9BABB" transform="translate(899,34)"/>
<path d="M0 0 C6.71189985 5.61607946 11.01982331 11.59195091 11.953125 20.515625 C12.29559791 29.07744771 10.09775508 35.1675562 4.54296875 41.69921875 C-1.5909608 48.14334702 -8.24232123 51.46563035 -17.20703125 51.82421875 C-25.59289548 51.74007964 -32.12868206 48.96123511 -38.46875 43.48828125 C-45.31198666 36.22899876 -46.83077068 29.34550232 -46.546875 19.5 C-45.8298672 11.45133493 -42.36100862 5.69549232 -36.26953125 0.38671875 C-24.52785501 -7.0136513 -11.67660217 -8.30023528 0 0 Z " fill="#B8B9BB" transform="translate(49.26953125,111.61328125)"/>
<path d="M0 0 C7.04128952 3.7985904 12.16805083 10.28716776 14.515625 17.99609375 C16.0546815 26.07614038 14.60513935 33.67713258 10.66015625 40.828125 C6.52935871 46.81523155 1.04632705 50.9952016 -5.921875 53.12109375 C-15.00425699 54.76615228 -22.64636307 54.37493412 -30.609375 49.49609375 C-37.61530146 44.42199344 -41.6091411 38.50491009 -43.578125 30.0546875 C-44.48449754 22.31962187 -42.77987058 15.13519074 -38.265625 8.796875 C-28.7416742 -3.0803776 -13.95270945 -6.50376295 0 0 Z " fill="#B9BABB" transform="translate(45.921875,206.87890625)"/>
<path d="M0 0 C2.75 2.25 2.75 2.25 5 5 C5.51433594 5.61101563 6.02867188 6.22203125 6.55859375 6.8515625 C11.45029158 12.92806004 13.53515975 18.77285704 13.30859375 26.609375 C12.25622046 34.7619377 8.18006968 41.67235373 2 47 C-5.80040057 52.35112804 -14.24657199 53.95971407 -23.5625 52.5 C-31.39452567 50.36654498 -37.36494775 45.61872186 -41.5625 38.75 C-45.60371461 31.37735918 -46.00576513 23.96418721 -44.609375 15.68359375 C-42.36334658 8.55677282 -36.60414558 2.27962108 -30.25 -1.5 C-20.54902865 -5.97737139 -9.24756235 -5.30170398 0 0 Z " fill="#B8B9BA" transform="translate(48,14)"/>
<path d="M0 0 C5.67368235 5.3438171 9.43663154 14.11822009 9.78515625 21.85546875 C9.38365639 30.67240561 6.27210017 37.80118811 -0.30859375 43.828125 C-7.19796403 49.19375932 -14.1112755 51.67242193 -22.90625 50.71875 C-30.64549085 49.32009201 -35.95841272 46.91767542 -41.3125 41 C-42.01375 40.236875 -42.715 39.47375 -43.4375 38.6875 C-48.40546478 31.56675048 -49.31183362 24.51117844 -48.3125 16 C-46.04378944 7.71984733 -41.08860397 1.37850803 -33.6875 -2.875 C-22.44530031 -8.83139352 -10.53029333 -6.35791295 0 0 Z " fill="#B9BABB" transform="translate(151.3125,210)"/>
<path d="M0 0 C8.05882656 4.06560562 12.45662477 9.95890025 15.609375 18.31640625 C17.44681183 25.05367462 16.40334287 32.17147243 13.640625 38.5546875 C9.41773709 45.90194181 3.20251383 51.60292626 -5.0390625 53.8828125 C-13.45968427 55.43545206 -21.15972476 54.43228546 -28.5546875 50.02734375 C-34.88785024 45.59175786 -39.788544 40.03552379 -41.390625 32.31640625 C-42.24787769 23.22952772 -41.36718838 15.40148066 -35.625 8.05859375 C-25.68899346 -2.5424211 -13.53933144 -5.4884013 0 0 Z " fill="#B8B9BB" transform="translate(144.390625,108.68359375)"/>
<path d="M0 0 C6.34847009 4.64798703 10.2278513 10.32438096 12 18 C13.18046952 27.40686648 11.40832696 34.80727634 5.625 42.3125 C-0.63366731 48.7201832 -8.00632454 52.03090018 -16.9375 52.4375 C-25.85270838 52.0924842 -32.71152968 48.2847155 -39.0859375 42.203125 C-44.06924205 36.46723976 -46.09159051 29.53659076 -46 22 C-45.35163038 14.05402339 -41.82425099 7.76680516 -36.1796875 2.20703125 C-24.91942972 -7.02455661 -12.34456718 -6.81937784 0 0 Z " fill="#B9BABB" transform="translate(249,111)"/>
<path d="M0 0 C6.41494118 4.29691506 10.44347164 10.53353991 12.87109375 17.81640625 C13.42429429 24.99737483 13.30108214 31.38866379 9.87109375 37.81640625 C9.39542969 38.72326172 9.39542969 38.72326172 8.91015625 39.6484375 C4.82174561 46.30297822 -2.19075561 50.2756747 -9.62890625 52.25390625 C-18.65067406 53.77603228 -26.56032056 51.94678984 -34.12890625 46.81640625 C-41.1111675 40.67411628 -44.44267353 33.37919802 -45.1875 24.171875 C-44.9553035 14.83757578 -40.27206208 7.95956208 -33.87890625 1.56640625 C-22.82022679 -5.47093523 -11.56983953 -6.4324062 0 0 Z " fill="#B9BABB" transform="translate(248.12890625,208.18359375)"/>
<path d="M0 0 C0.63808594 0.350625 1.27617187 0.70125 1.93359375 1.0625 C8.51006337 5.13566828 11.59254814 11.53022328 13.4375 18.875 C14.64363089 26.42795559 13.38217177 33.28716018 9.375 39.8125 C3.98218579 47.0590941 -1.98920422 50.77801302 -10.84375 52.65625 C-18.5116039 53.4913628 -25.85782825 52.03967306 -32.1875 47.54296875 C-38.77685397 41.93349716 -43.36711376 36.08818738 -44.27734375 27.33203125 C-44.58770745 18.33148399 -42.31148852 11.86333166 -36.73828125 4.82421875 C-26.94338546 -5.45491908 -12.06325595 -7.06595339 0 0 Z " fill="#B9BABB" transform="translate(147,14)"/>
<path d="M0 0 C6.08027182 3.75506897 9.36462484 9.49562466 12.3125 15.8125 C14.18727796 24.50465237 13.35446656 32.19589111 9 40 C6.5625 42.875 6.5625 42.875 4 45 C3.21625 45.70125 2.4325 46.4025 1.625 47.125 C-5.52090107 52.22921505 -12.83625224 53.59440288 -21.375 52.5 C-29.4930398 50.799828 -35.66616248 46.30810224 -40.5 39.625 C-44.33087222 33.22212575 -45.72983211 26.72166251 -44.59375 19.32421875 C-42.18768526 9.90574164 -37.0156521 3.78222902 -28.90625 -1.31640625 C-19.42169796 -6.24768602 -9.17142808 -5.00408867 0 0 Z " fill="#B8B9BA" transform="translate(248,14)"/>
<path d="M0 0 C0.93596512 0.00045319 1.87193024 0.00090637 2.83625793 0.00137329 C3.81692734 -0.00198532 4.79759674 -0.00534393 5.8079834 -0.00880432 C9.07441961 -0.01835796 12.34080468 -0.02026057 15.60725403 -0.02133179 C17.87917604 -0.02454468 20.15109784 -0.02790877 22.42301941 -0.03141785 C27.20318581 -0.03742246 31.98333412 -0.03925672 36.76350403 -0.03866577 C42.85469672 -0.03856484 48.94577101 -0.05213921 55.03693581 -0.06943798 C59.74020405 -0.08063161 64.44344451 -0.08258262 69.1467247 -0.08205605 C71.38952919 -0.08322809 73.63233459 -0.08760577 75.87512589 -0.09538841 C105.49128198 -0.18841875 105.49128198 -0.18841875 118.81819153 4.14663696 C119.86619934 4.47663696 120.91420715 4.80663696 121.99397278 5.14663696 C124.50569153 6.14663696 124.50569153 6.14663696 126.50569153 8.14663696 C121.62640587 7.48727404 117.00769629 6.22192569 112.28694153 4.86538696 C74.26518052 -4.96046139 33.77491374 2.50690506 -5.49430847 2.14663696 C-5.49430847 75.07663696 -5.49430847 148.00663696 -5.49430847 223.14663696 C5.72569153 223.14663696 16.94569153 223.14663696 28.50569153 223.14663696 C28.50569153 192.78663696 28.50569153 162.42663696 28.50569153 131.14663696 C43.68569153 131.14663696 58.86569153 131.14663696 74.50569153 131.14663696 C76.81569153 135.43663696 79.12569153 139.72663696 81.50569153 144.14663696 C81.17569153 144.80663696 80.84569153 145.46663696 80.50569153 146.14663696 C78.19569153 142.18663696 75.88569153 138.22663696 73.50569153 134.14663696 C59.31569153 133.81663696 45.12569153 133.48663696 30.50569153 133.14663696 C30.50569153 163.17663696 30.50569153 193.20663696 30.50569153 224.14663696 C18.29569153 224.14663696 6.08569153 224.14663696 -6.49430847 224.14663696 C-6.64783362 195.08834624 -6.7960821 166.03003408 -6.93727207 136.97168064 C-6.95032344 134.28968356 -6.96339632 131.60768659 -6.97648621 128.9256897 C-6.97973913 128.25904491 -6.98299206 127.59240013 -6.98634356 126.90555399 C-7.0391868 116.0974152 -7.09557662 105.28929766 -7.15326668 94.48118377 C-7.2123402 83.39916452 -7.26755145 72.31713014 -7.31936401 61.23507446 C-7.34860575 55.00705199 -7.37963635 48.77904967 -7.41484261 42.55105782 C-7.44788297 36.69647553 -7.47627764 30.84188962 -7.50101471 24.98726654 C-7.51095872 22.8316886 -7.52264136 20.67611793 -7.53613853 18.52055931 C-7.55422748 15.59131655 -7.56622155 12.66211254 -7.57659912 9.73283386 C-7.58340291 8.86806523 -7.5902067 8.00329661 -7.59721667 7.11232287 C-7.60102779 5.12346871 -7.5535391 3.13461259 -7.49430847 1.14663696 C-5.54799049 -0.79968102 -2.59149497 0.01305916 0 0 Z " fill="#5F6262" transform="translate(328.4943084716797,9.853363037109375)"/>
<path d="M0 0 C15.18 0 30.36 0 46 0 C48.31 4.29 50.62 8.58 53 13 C52.67 13.66 52.34 14.32 52 15 C48.535 9.06 48.535 9.06 45 3 C30.81 2.67 16.62 2.34 2 2 C2 32.03 2 62.06 2 93 C1.34 92.67 0.68 92.34 0 92 C0 61.64 0 31.28 0 0 Z " fill="#909192" transform="translate(357,141)"/>
<path d="M0 0 C13.17045621 -0.0465307 26.34089257 -0.08197396 39.51141453 -0.10362434 C45.62832627 -0.11402027 51.74518138 -0.1281022 57.86206055 -0.15087891 C63.77541084 -0.17275763 69.68870698 -0.18460007 75.60209465 -0.18975449 C77.84769479 -0.19342344 80.09329228 -0.20058722 82.33886909 -0.21146011 C111.94278958 -0.34897823 111.94278958 -0.34897823 125.3125 4 C126.36050781 4.33 127.40851563 4.66 128.48828125 5 C131 6 131 6 133 8 C128.12071434 7.34063707 123.50200477 6.07528873 118.78125 4.71875 C112.24805871 3.0303972 106.05227925 2.85695297 99.34472656 2.87060547 C98.2839238 2.86885315 97.22312103 2.86710083 96.13017273 2.86529541 C92.63364005 2.86090387 89.13715817 2.86380456 85.640625 2.8671875 C83.21018463 2.86651389 80.77974433 2.86554338 78.3493042 2.86428833 C73.26199704 2.86281519 68.17470746 2.86495438 63.08740234 2.86962891 C56.55455255 2.8753381 50.02174372 2.87203724 43.48889542 2.86605644 C38.47391447 2.86245085 33.45894333 2.8635892 28.4439621 2.86618423 C26.03411606 2.86685288 23.62426914 2.86602725 21.21442413 2.86370468 C17.85549037 2.8611769 14.49662403 2.86502001 11.13769531 2.87060547 C9.6337748 2.86756912 9.6337748 2.86756912 8.09947205 2.86447144 C7.18825089 2.86729126 6.27702972 2.87011108 5.3381958 2.87301636 C4.54402882 2.87339338 3.74986183 2.87377041 2.93162918 2.87415886 C0.91667105 2.8799474 0.91667105 2.8799474 -1 4 C-0.67 2.68 -0.34 1.36 0 0 Z " fill="#727373" transform="translate(322,10)"/>
<path d="M0 0 C4.875 1.75 4.875 1.75 6 4 C4.02 3.34 2.04 2.68 0 2 C0.33 2.99 0.66 3.98 1 5 C-4.28 10.61 -9.56 16.22 -15 22 C-13.4005386 25.19892281 -12.17187081 27.15353735 -9.875 29.75 C-9.33617187 30.36359375 -8.79734375 30.9771875 -8.2421875 31.609375 C-7.83226562 32.06828125 -7.42234375 32.5271875 -7 33 C-11.41510774 32.51286902 -13.30446645 31.14946803 -16.3125 27.9375 C-17.00988281 27.20402344 -17.70726562 26.47054687 -18.42578125 25.71484375 C-18.94527344 25.14894531 -19.46476563 24.58304688 -20 24 C-17.5096395 19.32060376 -14.19308481 15.79690211 -10.5625 12 C-6.87109203 8.11343323 -3.27730474 4.25163858 0 0 Z " fill="#D1D1D2" transform="translate(771,181)"/>
<path d="M0 0 C33.99 0 67.98 0 103 0 C103 0.33 103 0.66 103 1 C101.11198921 1.01213028 101.11198921 1.01213028 99.18583679 1.02450562 C87.3401829 1.10189637 75.49464486 1.18961767 63.64914227 1.28752708 C57.55884275 1.33753264 51.46856094 1.38386231 45.37817383 1.421875 C39.50369681 1.45867395 33.62936644 1.50501921 27.75501442 1.55806351 C25.51069517 1.57663615 23.26634445 1.59173342 21.02197838 1.60334396 C17.88518541 1.62015727 14.74873042 1.6491805 11.61206055 1.68115234 C10.67842178 1.68331253 9.74478302 1.68547272 8.78285217 1.68769836 C7.50192184 1.70444359 7.50192184 1.70444359 6.19511414 1.7215271 C5.45307078 1.72705786 4.71102743 1.73258862 3.94649792 1.73828697 C1.67679353 1.89850273 1.67679353 1.89850273 -1 4 C-0.67 2.68 -0.34 1.36 0 0 Z " fill="#919291" transform="translate(322,10)"/>
<path d="M0 0 C4.04087441 2.53480513 6.99206169 5.62978132 9 10 C8.67 10.66 8.34 11.32 8 12 C7.278125 11.2575 6.55625 10.515 5.8125 9.75 C1.50752089 5.54068709 -2.52677114 2.54568784 -8 0 C-8 -0.66 -8 -1.32 -8 -2 C-10.08326131 -2.02709444 -12.16662441 -2.04643873 -14.25 -2.0625 C-15.41015625 -2.07410156 -16.5703125 -2.08570313 -17.765625 -2.09765625 C-22.97118194 -1.95808529 -22.97118194 -1.95808529 -27 1 C-27.99 0.34 -28.98 -0.32 -30 -1 C-19.61186912 -5.70405927 -10.21718889 -5.01896998 0 0 Z " fill="#9D9D9E" transform="translate(148,208)"/>
<path d="M0 0 C-0.99 0.33 -1.98 0.66 -3 1 C-3 1.66 -3 2.32 -3 3 C-4.98 3 -6.96 3 -9 3 C-9.33 3.99 -9.66 4.98 -10 6 C-11.57376333 7.37351746 -13.20799007 8.67878671 -14.875 9.9375 C-18.1256584 12.39681736 -20.71111115 14.61214134 -23 18 C-22.17161148 12.10923719 -19.35876399 8.89539989 -15 5 C-10.09052134 1.82372765 -5.93277437 -0.33780922 0 0 Z " fill="#A4A6A7" transform="translate(229,107)"/>
<path d="M0 0 C9.2898667 0.70112202 18.42962212 3.09267966 25 10 C26.375 12.8125 26.375 12.8125 27 15 C26.56171875 14.63648438 26.1234375 14.27296875 25.671875 13.8984375 C18.08129316 7.88151287 9.49059803 3.1569541 0 1 C0 0.67 0 0.34 0 0 Z " fill="#959596" transform="translate(630,41)"/>
<path d="M0 0 C4.875 1.75 4.875 1.75 6 4 C4.02 3.34 2.04 2.68 0 2 C0.33 2.99 0.66 3.98 1 5 C-2.81495577 8.39717963 -6.48954059 11.53974941 -11 14 C-9.42219077 10.28954753 -7.09296752 7.70093616 -4.375 4.75 C-3.55773437 3.85796875 -2.74046875 2.9659375 -1.8984375 2.046875 C-1.27195312 1.37140625 -0.64546875 0.6959375 0 0 Z " fill="#9C9E9E" transform="translate(771,181)"/>
<path d="M0 0 C1.04483162 3.36757269 1.01010896 6.30417076 0.875 9.8125 C0.81654398 15.15148312 1.59851801 18.2930953 4 23 C4.6875 25.9375 4.6875 25.9375 5 28 C1.33234566 24.70851534 -0.4016132 22.88122266 -1 18 C-1.09289522 15.2595909 -1.13987228 12.55147794 -1.125 9.8125 C-1.12886719 9.08869141 -1.13273438 8.36488281 -1.13671875 7.61914062 C-1.12673611 2.25347222 -1.12673611 2.25347222 0 0 Z " fill="#919292" transform="translate(794,58)"/>
<path d="M0 0 C0.66 0.33 1.32 0.66 2 1 C1.5875 1.350625 1.175 1.70125 0.75 2.0625 C-1.22209128 4.09046626 -1.22209128 4.09046626 -2.8125 7.375 C-4.91502066 11.22825771 -7.50775119 13.38081339 -11 16 C-11 11.9666466 -9.39120082 10.16482462 -7 7 C-6.34 7 -5.68 7 -5 7 C-4.731875 6.401875 -4.46375 5.80375 -4.1875 5.1875 C-3.01506533 3.02775192 -1.80630718 1.64209744 0 0 Z " fill="#9C9D9D" transform="translate(779,23)"/>
<path d="M0 0 C0.66 0.33 1.32 0.66 2 1 C0.04343039 4.5218253 -1.95100975 7.34442785 -5 10 C-5.66 10 -6.32 10 -7 10 C-7.99 13.465 -7.99 13.465 -9 17 C-9.87056734 14.58713125 -10.18561853 13.44460058 -9.1796875 11.03515625 C-6.4364668 6.88747226 -3.67430493 3.35936451 0 0 Z " fill="#9B9D9E" transform="translate(14,209)"/>
<path d="M0 0 C0.33 0.99 0.66 1.98 1 3 C-1.97 5.475 -1.97 5.475 -5 8 C-3.63629701 10.99220268 -2.05091917 13.29026529 0.125 15.75 C0.66382813 16.36359375 1.20265625 16.9771875 1.7578125 17.609375 C2.16773438 18.06828125 2.57765625 18.5271875 3 19 C-0.21524305 17.59155282 -2.32183868 15.89655214 -4.75 13.375 C-5.36359375 12.74335938 -5.9771875 12.11171875 -6.609375 11.4609375 C-7.06828125 10.97882813 -7.5271875 10.49671875 -8 10 C-5.83735988 6.01618925 -3.28788824 3.11016455 0 0 Z " fill="#7D7E7E" transform="translate(759,195)"/>
<path d="M0 0 C0.66 0.33 1.32 0.66 2 1 C-1.73992579 5.19325013 -4.75438896 7.25146299 -10 9 C-10.99 8.67 -11.98 8.34 -13 8 C-12.34 8 -11.68 8 -11 8 C-11 7.34 -11 6.68 -11 6 C-10.28972656 5.65066406 -9.57945312 5.30132812 -8.84765625 4.94140625 C-7.92855469 4.48636719 -7.00945313 4.03132812 -6.0625 3.5625 C-5.14597656 3.11003906 -4.22945312 2.65757812 -3.28515625 2.19140625 C-1.09471096 1.19474606 -1.09471096 1.19474606 0 0 Z " fill="#A8A9AA" transform="translate(863,196)"/>
<path d="M0 0 C0.66 0 1.32 0 2 0 C3.296875 1.42578125 3.296875 1.42578125 4.75 3.3125 C7.46551284 6.6165969 9.9852188 8.37496951 14 10 C11 11 11 11 7.5 9.75 C2.58823529 7.29411765 2.58823529 7.29411765 1 5 C0.3125 2.3125 0.3125 2.3125 0 0 Z " fill="#B2B3B3" transform="translate(209,52)"/>
<path d="M0 0 C1.27104493 3.81313479 0.53235527 5.36840393 -0.8984375 8.9921875 C-2.66928111 12.21989535 -5.02152441 13.88197291 -8 16 C-8.66 15.67 -9.32 15.34 -10 15 C-9.52949219 14.50371094 -9.05898438 14.00742188 -8.57421875 13.49609375 C-4.62393472 9.18594947 -1.95387647 5.51682767 0 0 Z " fill="#989899" transform="translate(875,180)"/>
<path d="M0 0 C0.99 0.33 1.98 0.66 3 1 C2.113125 1.37125 1.22625 1.7425 0.3125 2.125 C-3.4453861 4.25210534 -5.29608806 6.67210839 -8 10 C-10.8125 11.875 -10.8125 11.875 -13 13 C-10.56553419 7.02449302 -5.49400501 3.10530718 0 0 Z " fill="#969797" transform="translate(120,12)"/>
<path d="M0 0 C3.45835793 0.28819649 4.78380733 0.78965038 7.3125 3.25 C9.12328851 6.2009146 9.38684492 7.61510691 9 11 C5.40521193 7.67149253 2.77635232 4.01028669 0 0 Z " fill="#B0B1B2" transform="translate(248,211)"/>
<path d="M0 0 C10.5 3.5 10.5 3.5 21 7 C21 7.33 21 7.66 21 8 C12.86304398 7.72876813 7.06820635 4.91083499 0 1 C0 0.67 0 0.34 0 0 Z " fill="#828584" transform="translate(592,197)"/>
<path d="M0 0 C0 3 0 3 -2.40625 5.48046875 C-3.43005231 6.39125392 -4.46167034 7.29331192 -5.5 8.1875 C-6.02464844 8.65091797 -6.54929687 9.11433594 -7.08984375 9.59179688 C-8.38666224 10.735355 -9.69249867 11.86867174 -11 13 C-11.66 12.67 -12.32 12.34 -13 12 C-10.75233212 8.56934902 -8.48693424 7.07555609 -5 5 C-3.2958946 3.37163262 -1.61974559 1.71230248 0 0 Z " fill="#8C8D8E" transform="translate(898,209)"/>
<path d="M0 0 C1.14926266 0.95421808 2.29430541 1.91352045 3.4375 2.875 C4.07558594 3.40867187 4.71367188 3.94234375 5.37109375 4.4921875 C7 6 7 6 8 8 C5.2980567 7.63487253 3.41609148 7.30130763 1.1875 5.6875 C0 4 0 4 0 0 Z " fill="#A7A8A9" transform="translate(772,103)"/>
<path d="M0 0 C0.33 0.66 0.66 1.32 1 2 C1.66 2 2.32 2 3 2 C6.10096154 7.45769231 6.10096154 7.45769231 5.58984375 10.203125 C5.39519531 10.79609375 5.20054687 11.3890625 5 12 C4.15885829 10.56705502 3.32734313 9.12845595 2.5 7.6875 C1.80390625 6.48673828 1.80390625 6.48673828 1.09375 5.26171875 C0 3 0 3 0 0 Z " fill="#9E9F9F" transform="translate(762,88)"/>
<path d="M0 0 C4.19162145 0.95264124 5.7207791 1.63260408 8.375 5.125 C8.91125 6.07375 9.4475 7.0225 10 8 C6.05205855 6.32971708 3.18203882 3.8204435 0 1 C0 0.67 0 0.34 0 0 Z " fill="#9A9A9A" transform="translate(560,214)"/>
<path d="M0 0 C2.5 1.375 2.5 1.375 5 3 C5 3.66 5 4.32 5 5 C5.66 5 6.32 5 7 5 C7.66 6.32 8.32 7.64 9 9 C6.30615566 8.62843526 5.2197074 8.24505825 3.375 6.1875 C2.1068021 4.16991243 1.00302795 2.16036789 0 0 Z " fill="#9D9D9E" transform="translate(894,31)"/>
<path d="M0 0 C3 1 3 1 3.984375 2.77734375 C4.23703125 3.49019531 4.4896875 4.20304688 4.75 4.9375 C5.01296875 5.64777344 5.2759375 6.35804688 5.546875 7.08984375 C6 9 6 9 5 11 C4.16151196 9.54462432 3.32936066 8.08559627 2.5 6.625 C1.80390625 5.40683594 1.80390625 5.40683594 1.09375 4.1640625 C0 2 0 2 0 0 Z " fill="#99999A" transform="translate(538,183)"/>
<path d="M0 0 C-0.99 0.33 -1.98 0.66 -3 1 C-3 1.66 -3 2.32 -3 3 C-6.3 3.66 -9.6 4.32 -13 5 C-8.90474521 0.90474521 -5.76916479 -0.32966656 0 0 Z " fill="#949595" transform="translate(229,107)"/>
<path d="M0 0 C0 0.99 0 1.98 0 3 C-4.34285714 7 -4.34285714 7 -7 7 C-5.54744301 3.17053157 -3.57104439 1.87949705 0 0 Z " fill="#A3A3A4" transform="translate(54,248)"/>
<path d="M0 0 C0.33 0.99 0.66 1.98 1 3 C-0.65 4.32 -2.3 5.64 -4 7 C-3.43628586 3.73045798 -2.50037734 2.17424117 0 0 Z M-7 8 C-6.34 8.33 -5.68 8.66 -5 9 C-5.99 9.66 -6.98 10.32 -8 11 C-7.67 10.01 -7.34 9.02 -7 8 Z " fill="#C9CACB" transform="translate(764,191)"/>
<path d="M0 0 C3.36720387 1.39332574 4.9859524 2.9789286 7 6 C6.67 6.66 6.34 7.32 6 8 C1.3125 4.38671875 1.3125 4.38671875 0 3 C0 2.01 0 1.02 0 0 Z " fill="#9F9F9F" transform="translate(49,210)"/>
<path d="M0 0 C0.33 0.99 0.66 1.98 1 3 C0.04422943 4.36538653 -0.96352976 5.69481525 -2 7 C-2.71162443 8.64797236 -3.39031953 10.31165408 -4 12 C-4.65234375 10.265625 -4.65234375 10.265625 -5 8 C-4.00390625 5.859375 -4.00390625 5.859375 -2.5625 3.75 C-2.08941406 3.04359375 -1.61632812 2.3371875 -1.12890625 1.609375 C-0.75636719 1.07828125 -0.38382813 0.5471875 0 0 Z " fill="#CBCBCC" transform="translate(10,21)"/>
<path d="M0 0 C3.48331435 3.01887244 4.79157144 5.56909529 6 10 C5.01 9.67 4.02 9.34 3 9 C2.05078125 6.93359375 2.05078125 6.93359375 1.3125 4.4375 C1.06113281 3.61121094 0.80976563 2.78492188 0.55078125 1.93359375 C0.36902344 1.29550781 0.18726563 0.65742187 0 0 Z " fill="#909191" transform="translate(477,36)"/>
<path d="M0 0 C0.33 0.99 0.66 1.98 1 3 C-1.64 4.98 -4.28 6.96 -7 9 C-5.04783565 5.09567131 -3.12613393 2.96160056 0 0 Z " fill="#8C8D8E" transform="translate(759,195)"/>
<path d="M0 0 C2.475 0.495 2.475 0.495 5 1 C5.33 2.65 5.66 4.3 6 6 C3.97945196 4.35830472 1.97956942 2.69088222 0 1 C0 0.67 0 0.34 0 0 Z " fill="#AEAFAF" transform="translate(680,32)"/>
<path d="M0 0 C2.5 2.3125 2.5 2.3125 5 5 C5 5.99 5 6.98 5 8 C2.5 6.8125 2.5 6.8125 0 5 C-0.3125 2.3125 -0.3125 2.3125 0 0 Z " fill="#929393" transform="translate(577,181)"/>
<path d="M0 0 C0.66 1.32 1.32 2.64 2 4 C1.34 3.67 0.68 3.34 0 3 C0 2.01 0 1.02 0 0 Z " fill="#EEEEEE" transform="translate(532,174)"/>
<path d="M0 0 C0.66 0.33 1.32 0.66 2 1 C1.67 1.66 1.34 2.32 1 3 C0.34 2.34 -0.32 1.68 -1 1 C-0.67 0.67 -0.34 0.34 0 0 Z " fill="#FFFFFF" transform="translate(402,146)"/>
<path d="M0 0 C0.66 0.66 1.32 1.32 2 2 C1.34 2 0.68 2 0 2 C0 1.34 0 0.68 0 0 Z " fill="#C6C6C6" transform="translate(770,222)"/>
<path d="M0 0 C2 1 2 1 2 1 Z " fill="#BFBFBF" transform="translate(230,262)"/>
<path d="M0 0 C2 1 2 1 2 1 Z " fill="#FFFFFF" transform="translate(213,256)"/>
<path d="M0 0 C2 1 2 1 2 1 Z " fill="#FFFFFF" transform="translate(834,239)"/>
<path d="M0 0 C2 1 2 1 2 1 Z " fill="#BFBFBF" transform="translate(553,211)"/>
<path d="M0 0 C2 1 2 1 2 1 Z " fill="#BBBBBB" transform="translate(131,202)"/>
<path d="" fill="#FFFFFF" transform="translate(0,0)"/>
<path d="" fill="#D4D4D4" transform="translate(0,0)"/>
<path d="" fill="#FFFFFF" transform="translate(0,0)"/>
<path d="" fill="#FFFFFF" transform="translate(0,0)"/>
<path d="" fill="#FFFFFF" transform="translate(0,0)"/>
<path d="" fill="#D4D4D4" transform="translate(0,0)"/>
<path d="" fill="#FFFFFF" transform="translate(0,0)"/>
<path d="M0 0 C2 1 2 1 2 1 Z " fill="#FFFFFF" transform="translate(821,94)"/>
<path d="" fill="#FFFFFF" transform="translate(0,0)"/>
<path d="M0 0 C2 1 2 1 2 1 Z " fill="#FFFFFF" transform="translate(436,48)"/>
<path d="M0 0 C2 1 2 1 2 1 Z " fill="#FFFFFF" transform="translate(822,41)"/>
<path d="" fill="#FFFFFF" transform="translate(0,0)"/>
<path d="" fill="#FFFFFF" transform="translate(0,0)"/>
<path d="" fill="#FFFFFF" transform="translate(0,0)"/>
<path d="" fill="#FFFFFF" transform="translate(0,0)"/>
<path d="" fill="#FFFFFF" transform="translate(0,0)"/>
<path d="" fill="#FFFFFF" transform="translate(0,0)"/>
<path d="" fill="#FFFFFF" transform="translate(0,0)"/>
<path d="" fill="#FFFFFF" transform="translate(0,0)"/>
<path d="" fill="#FFFFFF" transform="translate(0,0)"/>
<path d="" fill="#AAAAAA" transform="translate(0,0)"/>
<path d="" fill="#7F7F7F" transform="translate(0,0)"/>
<path d="" fill="#FFFFFF" transform="translate(0,0)"/>
<path d="" fill="#FFFFFF" transform="translate(0,0)"/>
<path d="" fill="#CCCCCC" transform="translate(0,0)"/>
<path d="" fill="#FFFFFF" transform="translate(0,0)"/>
<path d="" fill="#FFFFFF" transform="translate(0,0)"/>
<path d="" fill="#FFFFFF" transform="translate(0,0)"/>
<path d="" fill="#7F7F7F" transform="translate(0,0)"/>
<path d="" fill="#FFFFFF" transform="translate(0,0)"/>
<path d="" fill="#FFFFFF" transform="translate(0,0)"/>
<path d="" fill="#7F7F7F" transform="translate(0,0)"/>
<path d="" fill="#FFFFFF" transform="translate(0,0)"/>
<path d="" fill="#AAAAAA" transform="translate(0,0)"/>
<path d="" fill="#FFFFFF" transform="translate(0,0)"/>
<path d="" fill="#FFFFFF" transform="translate(0,0)"/>
<path d="" fill="#CCCCCC" transform="translate(0,0)"/>
<path d="" fill="#FFFFFF" transform="translate(0,0)"/>
<path d="" fill="#AAAAAA" transform="translate(0,0)"/>
<path d="" fill="#FFFFFF" transform="translate(0,0)"/>
<path d="" fill="#FFFFFF" transform="translate(0,0)"/>
<path d="" fill="#FFFFFF" transform="translate(0,0)"/>
<path d="" fill="#FFFFFF" transform="translate(0,0)"/>
<path d="" fill="#FFFFFF" transform="translate(0,0)"/>
<path d="" fill="#FFFFFF" transform="translate(0,0)"/>
<path d="" fill="#FFFFFF" transform="translate(0,0)"/>
<path d="" fill="#FFFFFF" transform="translate(0,0)"/>
<path d="" fill="#FFFFFF" transform="translate(0,0)"/>
<path d="" fill="#7F7F7F" transform="translate(0,0)"/>
<path d="" fill="#7F7F7F" transform="translate(0,0)"/>
<path d="" fill="#FFFFFF" transform="translate(0,0)"/>
<path d="" fill="#FFFFFF" transform="translate(0,0)"/>
<path d="" fill="#FFFFFF" transform="translate(0,0)"/>
<path d="" fill="#FFFFFF" transform="translate(0,0)"/>
<path d="" fill="#FFFFFF" transform="translate(0,0)"/>
<path d="" fill="#FFFFFF" transform="translate(0,0)"/>
<path d="" fill="#AAAAAA" transform="translate(0,0)"/>
<path d="" fill="#7F7F7F" transform="translate(0,0)"/>
<path d="" fill="#FFFFFF" transform="translate(0,0)"/>
<path d="" fill="#7FFF7F" transform="translate(0,0)"/>
<path d="" fill="#FFFFFF" transform="translate(0,0)"/>
<path d="" fill="#FFFFFF" transform="translate(0,0)"/>
<path d="" fill="#FFFFFF" transform="translate(0,0)"/>
<path d="" fill="#FFFFFF" transform="translate(0,0)"/>
<path d="" fill="#FFFFFF" transform="translate(0,0)"/>
<path d="" fill="#FFFFFF" transform="translate(0,0)"/>
<path d="" fill="#FFFFFF" transform="translate(0,0)"/>
<path d="" fill="#7FFFFF" transform="translate(0,0)"/>
<path d="" fill="#FFFFFF" transform="translate(0,0)"/>
<path d="" fill="#FFFFFF" transform="translate(0,0)"/>
<path d="" fill="#FFFFFF" transform="translate(0,0)"/>
<path d="" fill="#FFFFFF" transform="translate(0,0)"/>
<path d="" fill="#FFFFFF" transform="translate(0,0)"/>
<path d="" fill="#FFFFFF" transform="translate(0,0)"/>
<path d="" fill="#FFFFFF" transform="translate(0,0)"/>
<path d="" fill="#BFBFBF" transform="translate(0,0)"/>
<path d="" fill="#FFFFFF" transform="translate(0,0)"/>
<path d="" fill="#FFFFFF" transform="translate(0,0)"/>
<path d="" fill="#FFFFFF" transform="translate(0,0)"/>
<path d="" fill="#AAAAAA" transform="translate(0,0)"/>
<path d="" fill="#FFFFFF" transform="translate(0,0)"/>
<path d="" fill="#FFFFFF" transform="translate(0,0)"/>
<path d="" fill="#FFFFFF" transform="translate(0,0)"/>
<path d="" fill="#AAAAAA" transform="translate(0,0)"/>
<path d="" fill="#7F7F7F" transform="translate(0,0)"/>
<path d="" fill="#FFFFFF" transform="translate(0,0)"/>
<path d="" fill="#FFFFFF" transform="translate(0,0)"/>
<path d="" fill="#FFFFFF" transform="translate(0,0)"/>
<path d="" fill="#FFFFFF" transform="translate(0,0)"/>
<path d="" fill="#AAAAAA" transform="translate(0,0)"/>
<path d="" fill="#FFFFFF" transform="translate(0,0)"/>
<path d="" fill="#FFFFFF" transform="translate(0,0)"/>
<path d="" fill="#FFFFFF" transform="translate(0,0)"/>
<path d="" fill="#FFFFFF" transform="translate(0,0)"/>
<path d="" fill="#FFFFFF" transform="translate(0,0)"/>
<path d="" fill="#FFFFFF" transform="translate(0,0)"/>
<path d="" fill="#FFFFFF" transform="translate(0,0)"/>
<path d="" fill="#FFFFFF" transform="translate(0,0)"/>
<path d="" fill="#FFFFFF" transform="translate(0,0)"/>
<path d="" fill="#FFFFFF" transform="translate(0,0)"/>
<path d="" fill="#7FFFFF" transform="translate(0,0)"/>
<path d="" fill="#FFFFFF" transform="translate(0,0)"/>
<path d="" fill="#FFFFFF" transform="translate(0,0)"/>
<path d="" fill="#FFFFFF" transform="translate(0,0)"/>
<path d="" fill="#FFFFFF" transform="translate(0,0)"/>
<path d="" fill="#FFFFFF" transform="translate(0,0)"/>
<path d="" fill="#FFFFFF" transform="translate(0,0)"/>
<path d="" fill="#AAAAAA" transform="translate(0,0)"/>
<path d="" fill="#FFFFFF" transform="translate(0,0)"/>
<path d="" fill="#FFFFFF" transform="translate(0,0)"/>
<path d="" fill="#FFFFFF" transform="translate(0,0)"/>
<path d="" fill="#FFFFFF" transform="translate(0,0)"/>
<path d="" fill="#FFFFFF" transform="translate(0,0)"/>
<path d="" fill="#7FFFFF" transform="translate(0,0)"/>
<path d="" fill="#FFFFFF" transform="translate(0,0)"/>
<path d="" fill="#AAAAAA" transform="translate(0,0)"/>
<path d="" fill="#FFFFFF" transform="translate(0,0)"/>
<path d="" fill="#FFFFFF" transform="translate(0,0)"/>
<path d="" fill="#7FFFFF" transform="translate(0,0)"/>
<path d="" fill="#FF7FFF" transform="translate(0,0)"/>
<path d="" fill="#7F7F7F" transform="translate(0,0)"/>
<path d="" fill="#FFFFFF" transform="translate(0,0)"/>
<path d="" fill="#FFFFFF" transform="translate(0,0)"/>
<path d="" fill="#FFFFFF" transform="translate(0,0)"/>
<path d="" fill="#BFBFBF" transform="translate(0,0)"/>
<path d="" fill="#FFFFFF" transform="translate(0,0)"/>
<path d="" fill="#7F7FFF" transform="translate(0,0)"/>
<path d="" fill="#CCCCCC" transform="translate(0,0)"/>
<path d="" fill="#7F7FFF" transform="translate(0,0)"/>
<path d="" fill="#FFFFFF" transform="translate(0,0)"/>
<path d="" fill="#FFFFFF" transform="translate(0,0)"/>
<path d="" fill="#FFFFFF" transform="translate(0,0)"/>
<path d="" fill="#FFFFFF" transform="translate(0,0)"/>
<path d="" fill="#FFFFFF" transform="translate(0,0)"/>
<path d="" fill="#AAAAAA" transform="translate(0,0)"/>
<path d="" fill="#AAAAAA" transform="translate(0,0)"/>
<path d="" fill="#FFFFFF" transform="translate(0,0)"/>
<path d="" fill="#7F7F7F" transform="translate(0,0)"/>
<path d="" fill="#FFFFFF" transform="translate(0,0)"/>
<path d="" fill="#FFFFFF" transform="translate(0,0)"/>
<path d="" fill="#FFFFFF" transform="translate(0,0)"/>
<path d="" fill="#FFFFFF" transform="translate(0,0)"/>
<path d="" fill="#FFFFFF" transform="translate(0,0)"/>
<path d="" fill="#FFFFFF" transform="translate(0,0)"/>
<path d="" fill="#FFFFFF" transform="translate(0,0)"/>
<path d="" fill="#7F7F7F" transform="translate(0,0)"/>
<path d="" fill="#FFFFFF" transform="translate(0,0)"/>
<path d="" fill="#FFFFFF" transform="translate(0,0)"/>
<path d="" fill="#FFFFFF" transform="translate(0,0)"/>
<path d="" fill="#FFFFFF" transform="translate(0,0)"/>
<path d="" fill="#FFFFFF" transform="translate(0,0)"/>
<path d="" fill="#BFBFBF" transform="translate(0,0)"/>
<path d="" fill="#7F7F7F" transform="translate(0,0)"/>
<path d="" fill="#AAAAAA" transform="translate(0,0)"/>
<path d="" fill="#FFFFFF" transform="translate(0,0)"/>
<path d="" fill="#FFFFFF" transform="translate(0,0)"/>
<path d="" fill="#FFFFFF" transform="translate(0,0)"/>
<path d="" fill="#FFFFFF" transform="translate(0,0)"/>
<path d="" fill="#AAAAAA" transform="translate(0,0)"/>
<path d="" fill="#FFFFFF" transform="translate(0,0)"/>
<path d="" fill="#FFFFFF" transform="translate(0,0)"/>
<path d="" fill="#FFFFFF" transform="translate(0,0)"/>
<path d="" fill="#FFFFFF" transform="translate(0,0)"/>
<path d="" fill="#7F7F7F" transform="translate(0,0)"/>
<path d="" fill="#FFFFFF" transform="translate(0,0)"/>
</svg>
